<?xml version="1.0" encoding="utf-8"?>
<!-- Generator: Adobe Illustrator 19.0.0, SVG Export Plug-In . SVG Version: 6.00 Build 0)  -->
<svg version="1.1" id="Capa_1" xmlns="http://www.w3.org/2000/svg" xmlns:xlink="http://www.w3.org/1999/xlink" x="0px" y="0px"
	 viewBox="0 0 128 128" style="enable-background:new 0 0 128 128;" xml:space="preserve">
<style type="text/css">
	.st0{fill:url(#XMLID_40_);}
	.st1{fill:#B2B2B2;}
	.st2{fill:#C33738;}
	.st3{fill:#FFFFFF;}
</style>
<g id="XMLID_21_">
	<linearGradient id="XMLID_40_" gradientUnits="userSpaceOnUse" x1="4.176" y1="123.8429" x2="123.8492" y2="4.1697">
		<stop  offset="0" style="stop-color:#5C1A6D"/>
		<stop  offset="0.26" style="stop-color:#552D6F"/>
		<stop  offset="0.7389" style="stop-color:#39406D"/>
		<stop  offset="1" style="stop-color:#10456A"/>
	</linearGradient>
	<path id="XMLID_5577_" class="st0" d="M128,47.1v66.7c0,7.8-6.4,14.2-14.2,14.2H14.2C6.4,128,0,121.6,0,113.8V14.2
		C0,6.4,6.4,0,14.2,0h99.7c7.8,0,14.2,6.4,14.2,14.2V47.1"/>
	<rect id="XMLID_5576_" x="44" y="80.9" class="st1" width="84" height="47.1"/>
	<rect id="XMLID_5575_" x="44" y="47.1" class="st2" width="84" height="33.7"/>
	<g id="XMLID_5540_">
		<g id="XMLID_58_">
			<path id="XMLID_59_" class="st3" d="M63.1,60.3c0-2.5-1.4-2.8-2.6-2.9c-1,0-2,0.1-2.9,0.3c-1,0.1-2,0.3-3,0.3
				c-3.3,0-4.6-2.2-4.6-5.2v-0.7h1.9v0.6c0,2.1,1.1,2.8,3,2.8c0.8,0,1.7-0.1,2.5-0.2c0.9-0.1,1.7-0.3,2.7-0.3c2.3,0,3.4,1,3.8,2.6
				H64c0.4-1.6,1.6-2.6,3.9-2.6c1,0,1.8,0.1,2.7,0.3c0.8,0.1,1.7,0.2,2.5,0.2c2,0,3-0.8,3.1-2.8v-0.6h1.9v0.7c0,2.9-1.3,5.1-4.8,5.1
				c-1,0-1.9-0.1-2.9-0.3c-1-0.1-1.9-0.2-2.9-0.2c-1.1,0-2.7,0.4-2.7,2.9H63.1z"/>
		</g>
		<g id="XMLID_55_">
			<path id="XMLID_56_" class="st3" d="M62.8,76.2L54,59.2h2.5l7.2,14.5h0.1L71,59.2h2.5l-8.7,17.1H62.8z"/>
		</g>
	</g>
</g>
</svg>
